<svg xmlns="http://www.w3.org/2000/svg" width="1920" height="1080"><path d="M-130-241l153-2 431-16z" fill="#f8fcc9" stroke="#f8fcc9" stroke-width="1.51"/><path d="M623 1300l-510 13 639-5z" fill="#689860" stroke="#689860" stroke-width="1.51"/><path d="M752 1308l-639 5 934 19z" fill="#5d935c" stroke="#5d935c" stroke-width="1.51"/><path d="M454-259l381 9 330-13z" fill="#c9e8b0" stroke="#c9e8b0" stroke-width="1.51"/><path d="M1165-263l328 49h265z" fill="#9ac68f" stroke="#9ac68f" stroke-width="1.51"/><path d="M1515 1307l-468 25 774 12z" fill="#176d3b" stroke="#176d3b" stroke-width="1.51"/><path d="M1165-263l593 49 278-35z" fill="#92bc8a" stroke="#92bc8a" stroke-width="1.51"/><path d="M1937 1311l-116 33 223-33z" fill="#005530" stroke="#005530" stroke-width="1.51"/><path d="M1964 378l77 45 40-204z" fill="#5c955c" stroke="#5c955c" stroke-width="1.51"/><path d="M1915 829l30 143 142-183z" fill="#1a763f" stroke="#1a763f" stroke-width="1.51"/><path d="M1977 113l104 106 10-183z" fill="#739e66" stroke="#739e66" stroke-width="1.51"/><path d="M2036-249l-110 57 185 182z" fill="#83a677" stroke="#83a677" stroke-width="1.51"/><path d="M1926-192l-22 115 207 67z" fill="#84a873" stroke="#84a873" stroke-width="1.51"/><path d="M2091 36l-10 183 30-229z" fill="#749c67" stroke="#749c67" stroke-width="1.51"/><path d="M2087 789l-142 183 171 12z" fill="#166e3b" stroke="#166e3b" stroke-width="1.51"/><path d="M2044 1146v165l72-327z" fill="#015c32" stroke="#015c32" stroke-width="1.51"/><path d="M2081 219l-40 204 92 225z" fill="#4f8d56" stroke="#4f8d56" stroke-width="1.51"/><path d="M2041 423l2 110 90 115z" fill="#418952" stroke="#418952" stroke-width="1.51"/><path d="M1899 657l188 132 46-141z" fill="#2b8048" stroke="#2b8048" stroke-width="1.51"/><path d="M2043 533l-144 124 234-9z" fill="#38864e" stroke="#38864e" stroke-width="1.51"/><path d="M2111-10l-30 229 52 429z" fill="#60935c" stroke="#60935c" stroke-width="1.51"/><path d="M2087 789l29 195 17-336z" fill="#1d7340" stroke="#1d7340" stroke-width="1.51"/><path d="M1758-214l168 22 110-57z" fill="#88ae82" stroke="#88ae82" stroke-width="1.51"/><path d="M2044 1146l-74 43 74 122z" fill="#005932" stroke="#005932" stroke-width="1.51"/><path d="M1977 113l5 81 99 25z" fill="#6e9e64" stroke="#6e9e64" stroke-width="1.51"/><path d="M1945 972l99 174 72-162z" fill="#0c6636" stroke="#0c6636" stroke-width="1.51"/><path d="M1904-77l187 113 20-46z" fill="#7da26d" stroke="#7da26d" stroke-width="1.51"/><path d="M1947 537l-48 120 144-124z" fill="#3e8d52" stroke="#3e8d52" stroke-width="1.51"/><path d="M1982 194l-18 184 117-159z" fill="#659a60" stroke="#659a60" stroke-width="1.51"/><path d="M1899 657l16 172 172-40z" fill="#238146" stroke="#238146" stroke-width="1.51"/><path d="M1904-77l73 190 114-77z" fill="#7ba46c" stroke="#7ba46c" stroke-width="1.51"/><path d="M1964 378l-17 159 94-114z" fill="#4f9358" stroke="#4f9358" stroke-width="1.51"/><path d="M2041 423l-94 114 96-4z" fill="#478e55" stroke="#478e55" stroke-width="1.51"/><path d="M1945 972l25 217 74-43z" fill="#056435" stroke="#056435" stroke-width="1.51"/><path d="M1970 1189l-33 122h107z" fill="#005730" stroke="#005730" stroke-width="1.51"/><path d="M1945 972l-119 155 144 62z" fill="#066937" stroke="#066937" stroke-width="1.51"/><path d="M1755 431l192 106 17-159z" fill="#51995b" stroke="#51995b" stroke-width="1.51"/><path d="M1904-77L1766 82l211 31z" fill="#7eab6e" stroke="#7eab6e" stroke-width="1.51"/><path d="M1977 113l-190 91 195-10z" fill="#72a467" stroke="#72a467" stroke-width="1.51"/><path d="M1787 204l177 174 18-184z" fill="#68a163" stroke="#68a163" stroke-width="1.51"/><path d="M1766 82l21 122 190-91z" fill="#78ab6b" stroke="#78ab6b" stroke-width="1.51"/><path d="M1787 204l-32 227 209-53z" fill="#61a261" stroke="#61a261" stroke-width="1.51"/><path d="M1826 1127l111 184 33-122z" fill="#006035" stroke="#006035" stroke-width="1.51"/><path d="M1493-214l196 21 69-21z" fill="#91bc87" stroke="#91bc87" stroke-width="1.51"/><path d="M1826 1127l-5 217 116-33z" fill="#005f33" stroke="#005f33" stroke-width="1.51"/><path d="M1915 829l-107 28 137 115z" fill="#1a7a40" stroke="#1a7a40" stroke-width="1.51"/><path d="M1899 657l-170 78 186 94z" fill="#278a4a" stroke="#278a4a" stroke-width="1.51"/><path d="M1729 735l79 122 107-28z" fill="#228547" stroke="#228547" stroke-width="1.51"/><path d="M1746 947l80 180 119-155z" fill="#10723b" stroke="#10723b" stroke-width="1.51"/><path d="M1808 857l-62 90 199 25z" fill="#18793f" stroke="#18793f" stroke-width="1.51"/><path d="M1729 586l170 71 48-120z" fill="#3d9254" stroke="#3d9254" stroke-width="1.51"/><path d="M1755 431l-26 155 218-49z" fill="#4a9959" stroke="#4a9959" stroke-width="1.51"/><path d="M1784-104l120 27 22-115z" fill="#87b079" stroke="#87b079" stroke-width="1.51"/><path d="M1187 1285l-140 47 468-25z" fill="#237b45" stroke="#237b45" stroke-width="1.51"/><path d="M1784-104l-18 186 138-159z" fill="#85b174" stroke="#85b174" stroke-width="1.51"/><path d="M1758-214l26 110 142-88z" fill="#8ab27f" stroke="#8ab27f" stroke-width="1.51"/><path d="M1682 1256l139 88 5-217z" fill="#056535" stroke="#056535" stroke-width="1.51"/><path d="M1729 586v149l170-78z" fill="#379251" stroke="#379251" stroke-width="1.51"/><path d="M1676 229l79 202 32-227z" fill="#6ba966" stroke="#6ba966" stroke-width="1.51"/><path d="M1682 1256l-167 51 306 37z" fill="#0c6435" stroke="#0c6435" stroke-width="1.51"/><path d="M1746 947l-69 96 149 84z" fill="#14753c" stroke="#14753c" stroke-width="1.51"/><path d="M1677 1043l5 213 144-129z" fill="#0b6f3a" stroke="#0b6f3a" stroke-width="1.51"/><path d="M1606-115l160 197 18-186z" fill="#8ab676" stroke="#8ab676" stroke-width="1.51"/><path d="M1597 844l149 103 62-90z" fill="#218344" stroke="#218344" stroke-width="1.51"/><path d="M1729 735l-132 109 211 13z" fill="#278a49" stroke="#278a49" stroke-width="1.51"/><path d="M1165-263l201 63 127-14z" fill="#a0cf95" stroke="#a0cf95" stroke-width="1.51"/><path d="M1677 1043l-88 80 93 133z" fill="#11733b" stroke="#11733b" stroke-width="1.51"/><path d="M1642 442l87 144 26-155z" fill="#52a05d" stroke="#52a05d" stroke-width="1.51"/><path d="M1676 229l-34 213 113-11z" fill="#63a863" stroke="#63a863" stroke-width="1.51"/><path d="M1624 140l52 89 90-147z" fill="#7cb26e" stroke="#7cb26e" stroke-width="1.51"/><path d="M1606-115l18 255 142-58z" fill="#86b674" stroke="#86b674" stroke-width="1.51"/><path d="M1758-214l-69 21 95 89z" fill="#8db781" stroke="#8db781" stroke-width="1.51"/><path d="M1766 82l-90 147 111-25z" fill="#78ae6b" stroke="#78ae6b" stroke-width="1.51"/><path d="M1689-193l-83 78 178 11z" fill="#8eb97f" stroke="#8eb97f" stroke-width="1.51"/><path d="M1642 442l7 141 80 3z" fill="#4c9f5b" stroke="#4c9f5b" stroke-width="1.51"/><path d="M1729 586l-80-3 80 152z" fill="#3d9854" stroke="#3d9854" stroke-width="1.51"/><path d="M1649 583l-24 142 104 10z" fill="#389752" stroke="#389752" stroke-width="1.51"/><path d="M1625 725l-28 119 132-109z" fill="#2d914c" stroke="#2d914c" stroke-width="1.51"/><path d="M1597 844l80 199 69-96z" fill="#1e7f41" stroke="#1e7f41" stroke-width="1.51"/><path d="M1606-115l-90 46 108 209z" fill="#8dbc78" stroke="#8dbc78" stroke-width="1.51"/><path d="M1522 229l120 213 34-213z" fill="#6eaf68" stroke="#6eaf68" stroke-width="1.51"/><path d="M1597 844l-79 163 159 36z" fill="#208141" stroke="#208141" stroke-width="1.51"/><path d="M1493-214l113 99 83-78z" fill="#93be85" stroke="#93be85" stroke-width="1.51"/><path d="M1522 229l-55 202 175 11z" fill="#69af67" stroke="#69af67" stroke-width="1.51"/><path d="M1642 442l-132 87 139 54z" fill="#52a35d" stroke="#52a35d" stroke-width="1.51"/><path d="M1589 1123l-74 184 167-51z" fill="#116e3a" stroke="#116e3a" stroke-width="1.51"/><path d="M1516-69l-58 159 166 50z" fill="#8abd76" stroke="#8abd76" stroke-width="1.51"/><path d="M1624 140l-102 89h154z" fill="#7ab46d" stroke="#7ab46d" stroke-width="1.51"/><path d="M1518 1007l71 116 88-80z" fill="#1a7b3f" stroke="#1a7b3f" stroke-width="1.51"/><path d="M1510 529l-78 180 193 16z" fill="#42a057" stroke="#42a057" stroke-width="1.51"/><path d="M1510 529l115 196 24-142z" fill="#459f58" stroke="#459f58" stroke-width="1.51"/><path d="M1467 431l43 98 132-87z" fill="#5baa62" stroke="#5baa62" stroke-width="1.51"/><path d="M1379 1249l-192 36 328 22z" fill="#1e7741" stroke="#1e7741" stroke-width="1.51"/><path d="M1448 885l70 122 79-163z" fill="#288a47" stroke="#288a47" stroke-width="1.51"/><path d="M1432 709l165 135 28-119z" fill="#32964f" stroke="#32964f" stroke-width="1.51"/><path d="M1458 90l64 139 102-89z" fill="#82ba71" stroke="#82ba71" stroke-width="1.51"/><path d="M1450 1085l65 222 74-184z" fill="#16773e" stroke="#16773e" stroke-width="1.51"/><path d="M1432 709l16 176 149-41z" fill="#31954e" stroke="#31954e" stroke-width="1.51"/><path d="M1493-214l23 145 90-46z" fill="#94c183" stroke="#94c183" stroke-width="1.51"/><path d="M1450 1085l-71 164 136 58z" fill="#1a7740" stroke="#1a7740" stroke-width="1.51"/><path d="M1518 1007l-68 78 139 38z" fill="#1d7e41" stroke="#1d7e41" stroke-width="1.51"/><path d="M1383 680l49 29 78-180z" fill="#48a65c" stroke="#48a65c" stroke-width="1.51"/><path d="M1284-61l174 151 58-159z" fill="#94c77f" stroke="#94c77f" stroke-width="1.51"/><path d="M1493-214l-127 14 150 131z" fill="#99c789" stroke="#99c789" stroke-width="1.51"/><path d="M1448 885l-75 77 145 45z" fill="#298b48" stroke="#298b48" stroke-width="1.51"/><path d="M1458 90l-125 24 189 115z" fill="#87c176" stroke="#87c176" stroke-width="1.51"/><path d="M1333 114l10 171 179-56z" fill="#82c075" stroke="#82c075" stroke-width="1.51"/><path d="M1378 376l89 55 55-202z" fill="#70b66c" stroke="#70b66c" stroke-width="1.51"/><path d="M1343 285l35 91 144-147z" fill="#78bb70" stroke="#78bb70" stroke-width="1.51"/><path d="M1373 962l77 123 68-78z" fill="#258646" stroke="#258646" stroke-width="1.51"/><path d="M1366-200l-82 139 232-8z" fill="#9bcb87" stroke="#9bcb87" stroke-width="1.51"/><path d="M1467 431l-178 77 221 21z" fill="#5db166" stroke="#5db166" stroke-width="1.51"/><path d="M1289 508l94 172 127-151z" fill="#53ad63" stroke="#53ad63" stroke-width="1.51"/><path d="M1432 709l-135 80 151 96z" fill="#379e54" stroke="#379e54" stroke-width="1.51"/><path d="M1348 1096l31 153 71-164z" fill="#1f8244" stroke="#1f8244" stroke-width="1.51"/><path d="M1373 962l-25 134 102-11z" fill="#258847" stroke="#258847" stroke-width="1.51"/><path d="M1284-61l49 175 125-24z" fill="#93c97e" stroke="#93c97e" stroke-width="1.51"/><path d="M1378 376l-89 132 178-77z" fill="#67b66b" stroke="#67b66b" stroke-width="1.51"/><path d="M1383 680l-86 109 135-80z" fill="#3fa559" stroke="#3fa559" stroke-width="1.51"/><path d="M1297 789l76 173 75-77z" fill="#32974f" stroke="#32974f" stroke-width="1.51"/><path d="M1284-61l-57 114 106 61z" fill="#98cf83" stroke="#98cf83" stroke-width="1.51"/><path d="M1297 789l-74 22 150 151z" fill="#389e54" stroke="#389e54" stroke-width="1.51"/><path d="M1176 1022l172 74 25-134z" fill="#2c904c" stroke="#2c904c" stroke-width="1.51"/><path d="M1182 398l107 110 89-132z" fill="#6dbd6f" stroke="#6dbd6f" stroke-width="1.51"/><path d="M1348 1096l-117 91 148 62z" fill="#228347" stroke="#228347" stroke-width="1.51"/><path d="M1186 688l111 101 86-109z" fill="#44ab5d" stroke="#44ab5d" stroke-width="1.51"/><path d="M1289 508l-103 180 197-8z" fill="#51b164" stroke="#51b164" stroke-width="1.51"/><path d="M1231 1187l-44 98 192-36z" fill="#238146" stroke="#238146" stroke-width="1.51"/><path d="M1343 285l-161 113 196-22z" fill="#76c072" stroke="#76c072" stroke-width="1.51"/><path d="M1205-99l79 38 82-139z" fill="#a1d38d" stroke="#a1d38d" stroke-width="1.51"/><path d="M1223 811l-47 211 197-60z" fill="#349951" stroke="#349951" stroke-width="1.51"/><path d="M1333 114l-178 175 188-4z" fill="#85c879" stroke="#85c879" stroke-width="1.51"/><path d="M1165-263l40 164 161-101z" fill="#a5d596" stroke="#a5d596" stroke-width="1.51"/><path d="M1157 566l29 122 103-180z" fill="#5cb76a" stroke="#5cb76a" stroke-width="1.51"/><path d="M1227 53l-72 236 178-175z" fill="#91ce7f" stroke="#91ce7f" stroke-width="1.51"/><path d="M1155 289l27 109 161-113z" fill="#7fc677" stroke="#7fc677" stroke-width="1.51"/><path d="M1176 1022l55 165 117-91z" fill="#2a8d4c" stroke="#2a8d4c" stroke-width="1.51"/><path d="M1090 122l65 167 72-236z" fill="#97d182" stroke="#97d182" stroke-width="1.51"/><path d="M1186 688l37 123 74-22z" fill="#43aa5d" stroke="#43aa5d" stroke-width="1.51"/><path d="M291 1275l-178 38 510-13z" fill="#739d66" stroke="#739d66" stroke-width="1.51"/><path d="M1081 959l95 63 47-211z" fill="#3e9e56" stroke="#3e9e56" stroke-width="1.51"/><path d="M1205-99l22 152 57-114z" fill="#a0d488" stroke="#a0d488" stroke-width="1.51"/><path d="M1182 398l-25 168 132-58z" fill="#69be70" stroke="#69be70" stroke-width="1.51"/><path d="M921 1291l-169 17 295 24z" fill="#468a53" stroke="#468a53" stroke-width="1.51"/><path d="M835-250l209 52 121-65z" fill="#b8e0a7" stroke="#b8e0a7" stroke-width="1.51"/><path d="M1165-263l-121 65 161 99z" fill="#adda9b" stroke="#adda9b" stroke-width="1.51"/><path d="M1044-198l37 111 124-12z" fill="#aedb97" stroke="#aedb97" stroke-width="1.51"/><path d="M1071 863l10 96 142-148z" fill="#45a45a" stroke="#45a45a" stroke-width="1.51"/><path d="M1186 688l-127 54 164 69z" fill="#4cb062" stroke="#4cb062" stroke-width="1.51"/><path d="M1205-99l-124 12 146 140z" fill="#a6d78c" stroke="#a6d78c" stroke-width="1.51"/><path d="M1081-87l9 209 137-69z" fill="#a3d68a" stroke="#a3d68a" stroke-width="1.51"/><path d="M1055 1126l132 159 44-98z" fill="#30894c" stroke="#30894c" stroke-width="1.51"/><path d="M1176 1022l-121 104 176 61z" fill="#349150" stroke="#349150" stroke-width="1.51"/><path d="M1059 742l12 121 152-52z" fill="#4cac5f" stroke="#4cac5f" stroke-width="1.51"/><path d="M1085 373l72 193 25-168z" fill="#76c475" stroke="#76c475" stroke-width="1.51"/><path d="M1085 373l-68 182 140 11z" fill="#73c375" stroke="#73c375" stroke-width="1.51"/><path d="M1155 289l-70 84 97 25z" fill="#82c97a" stroke="#82c97a" stroke-width="1.51"/><path d="M1157 566l-98 176 127-54z" fill="#59b669" stroke="#59b669" stroke-width="1.51"/><path d="M1055 1126l-8 206 140-47z" fill="#36884e" stroke="#36884e" stroke-width="1.51"/><path d="M1017 555l42 187 98-176z" fill="#64bb6e" stroke="#64bb6e" stroke-width="1.51"/><path d="M1090 122L984 266l171 23z" fill="#96d283" stroke="#96d283" stroke-width="1.51"/><path d="M1081 959l-26 167 121-104z" fill="#3e9854" stroke="#3e9854" stroke-width="1.51"/><path d="M23-243l261 14 170-30z" fill="#f1f9c4" stroke="#f1f9c4" stroke-width="1.51"/><path d="M984 266l101 107 70-84z" fill="#8cce7f" stroke="#8cce7f" stroke-width="1.51"/><path d="M921 1291l126 41 8-206z" fill="#3e8b51" stroke="#3e8b51" stroke-width="1.51"/><path d="M920 1136l1 155 134-165z" fill="#439455" stroke="#439455" stroke-width="1.51"/><path d="M1017 555l-81 140 123 47z" fill="#65bc6e" stroke="#65bc6e" stroke-width="1.51"/><path d="M886-63L874 56l207-143z" fill="#b6e097" stroke="#b6e097" stroke-width="1.51"/><path d="M912 1040l143 86 26-167z" fill="#469c58" stroke="#469c58" stroke-width="1.51"/><path d="M940 511l77 44 68-182z" fill="#7cc779" stroke="#7cc779" stroke-width="1.51"/><path d="M1081-87L874 56l216 66z" fill="#addc90" stroke="#addc90" stroke-width="1.51"/><path d="M874 56l110 210 106-144z" fill="#a6d98c" stroke="#a6d98c" stroke-width="1.51"/><path d="M1071 863l-196-10 206 106z" fill="#50a85f" stroke="#50a85f" stroke-width="1.51"/><path d="M984 266l-116 88 217 19z" fill="#92d182" stroke="#92d182" stroke-width="1.51"/><path d="M868 354l72 157 145-138z" fill="#88cd7f" stroke="#88cd7f" stroke-width="1.51"/><path d="M1059 742L875 853l196 10z" fill="#55af64" stroke="#55af64" stroke-width="1.51"/><path d="M1044-198L886-63l195-24z" fill="#b7e09a" stroke="#b7e09a" stroke-width="1.51"/><path d="M875 853l37 187 169-81z" fill="#51a55d" stroke="#51a55d" stroke-width="1.51"/><path d="M874 56l2 182 108 28z" fill="#a7db8c" stroke="#a7db8c" stroke-width="1.51"/><path d="M936 695l-61 158 184-111z" fill="#5eb76a" stroke="#5eb76a" stroke-width="1.51"/><path d="M912 1040l8 96 135-10z" fill="#489a59" stroke="#489a59" stroke-width="1.51"/><path d="M835-250l51 187 158-135z" fill="#bee3a4" stroke="#bee3a4" stroke-width="1.51"/><path d="M940 511l-4 184 81-140z" fill="#72c376" stroke="#72c376" stroke-width="1.51"/><path d="M876 238l-8 116 116-88z" fill="#9cd688" stroke="#9cd688" stroke-width="1.51"/><path d="M874 56l-85 156 87 26z" fill="#afde90" stroke="#afde90" stroke-width="1.51"/><path d="M875 853l-116 149 153 38z" fill="#5aa861" stroke="#5aa861" stroke-width="1.51"/><path d="M920 1136l-168 172 169-17z" fill="#4b9157" stroke="#4b9157" stroke-width="1.51"/><path d="M786 745l89 108 61-158z" fill="#66ba6d" stroke="#66ba6d" stroke-width="1.51"/><path d="M868 354l-172 61 244 96z" fill="#93d283" stroke="#93d283" stroke-width="1.51"/><path d="M696 415l-15 125 259-29z" fill="#90d082" stroke="#90d082" stroke-width="1.51"/><path d="M786 745l150-50 4-184z" fill="#71c274" stroke="#71c274" stroke-width="1.51"/><path d="M681 540l105 205 154-234z" fill="#7fc87a" stroke="#7fc87a" stroke-width="1.51"/><path d="M835-250l-94 71L886-63z" fill="#c7e7a7" stroke="#c7e7a7" stroke-width="1.51"/><path d="M726 1118l26 190 168-172z" fill="#54995b" stroke="#54995b" stroke-width="1.51"/><path d="M759 1002l-33 116 186-78z" fill="#5aa35f" stroke="#5aa35f" stroke-width="1.51"/><path d="M912 1040l-186 78 194 18z" fill="#539e5c" stroke="#539e5c" stroke-width="1.51"/><path d="M454-259l114 72 267-63z" fill="#d8efb5" stroke="#d8efb5" stroke-width="1.51"/><path d="M702 91l87 121 85-156z" fill="#b9e294" stroke="#b9e294" stroke-width="1.51"/><path d="M786 745l-13 80 102 28z" fill="#68b86c" stroke="#68b86c" stroke-width="1.51"/><path d="M773 825l-14 177 116-149z" fill="#63b066" stroke="#63b066" stroke-width="1.51"/><path d="M789 212l79 142 8-116z" fill="#a4d98b" stroke="#a4d98b" stroke-width="1.51"/><path d="M690-28l184 84 12-119z" fill="#c0e59a" stroke="#c0e59a" stroke-width="1.51"/><path d="M741-179L690-28l196-35z" fill="#c9e8a0" stroke="#c9e8a0" stroke-width="1.51"/><path d="M568-187l173 8 94-71z" fill="#d0ecaf" stroke="#d0ecaf" stroke-width="1.51"/><path d="M690-28l12 119 172-35z" fill="#c2e699" stroke="#c2e699" stroke-width="1.51"/><path d="M789 212l-93 203 172-61z" fill="#a3d98a" stroke="#a3d98a" stroke-width="1.51"/><path d="M726 1118l-103 182 129 8z" fill="#5b985c" stroke="#5b985c" stroke-width="1.51"/><path d="M610 997l149 5 14-177z" fill="#69af66" stroke="#69af66" stroke-width="1.51"/><path d="M570 890l40 107 163-172z" fill="#70b56b" stroke="#70b56b" stroke-width="1.51"/><path d="M681 540L532 709l254 36z" fill="#84ca7b" stroke="#84ca7b" stroke-width="1.51"/><path d="M601 375l95 40 93-203z" fill="#aadc8c" stroke="#aadc8c" stroke-width="1.51"/><path d="M572 242l29 133 188-163z" fill="#b4e091" stroke="#b4e091" stroke-width="1.51"/><path d="M702 91L572 242l217-30z" fill="#bbe394" stroke="#bbe394" stroke-width="1.51"/><path d="M532 709l241 116 13-80z" fill="#76c173" stroke="#76c173" stroke-width="1.51"/><path d="M490 1248l-199 27 332 25z" fill="#6b9c62" stroke="#6b9c62" stroke-width="1.51"/><path d="M570 1169l53 131 103-182z" fill="#619e60" stroke="#619e60" stroke-width="1.51"/><path d="M532 709l38 181 203-65z" fill="#79bf72" stroke="#79bf72" stroke-width="1.51"/><path d="M549 574l-17 135 149-169z" fill="#91d081" stroke="#91d081" stroke-width="1.51"/><path d="M610 997l116 121 33-116z" fill="#64a863" stroke="#64a863" stroke-width="1.51"/><path d="M568-187L690-28l51-151z" fill="#d3eda9" stroke="#d3eda9" stroke-width="1.51"/><path d="M568-187l61 175 61-16z" fill="#d5eea4" stroke="#d5eea4" stroke-width="1.51"/><path d="M690-28l-61 16 73 103z" fill="#cae99e" stroke="#cae99e" stroke-width="1.51"/><path d="M610 997l-40 172 156-51z" fill="#67a764" stroke="#67a764" stroke-width="1.51"/><path d="M601 375l80 165 15-125z" fill="#9fd788" stroke="#9fd788" stroke-width="1.51"/><path d="M629-12l-34 61 107 42z" fill="#cbea9d" stroke="#cbea9d" stroke-width="1.51"/><path d="M595 49l-23 193L702 91z" fill="#c6e89a" stroke="#c6e89a" stroke-width="1.51"/><path d="M601 375l-52 199 132-34z" fill="#9cd687" stroke="#9cd687" stroke-width="1.51"/><path d="M438 213l134 29 23-193z" fill="#c8e99b" stroke="#c8e99b" stroke-width="1.51"/><path d="M426 378l123 196 52-199z" fill="#aadc8d" stroke="#aadc8d" stroke-width="1.51"/><path d="M466 1004l104 165 40-172z" fill="#6fac68" stroke="#6fac68" stroke-width="1.51"/><path d="M570 1169l-80 79 133 52z" fill="#669c61" stroke="#669c61" stroke-width="1.51"/><path d="M413-15l182 64 34-61z" fill="#d4eea3" stroke="#d4eea3" stroke-width="1.51"/><path d="M568-187L413-15l216 3z" fill="#dbf1a7" stroke="#dbf1a7" stroke-width="1.51"/><path d="M466 1004l-1 151 105 14z" fill="#70aa68" stroke="#70aa68" stroke-width="1.51"/><path d="M426 378l-9 165 132 31z" fill="#a7da8c" stroke="#a7da8c" stroke-width="1.51"/><path d="M532 709l-90 154 128 27z" fill="#80c175" stroke="#80c175" stroke-width="1.51"/><path d="M406 59l32 154L595 49z" fill="#d2eda0" stroke="#d2eda0" stroke-width="1.51"/><path d="M572 242L426 378l175-3z" fill="#b7e192" stroke="#b7e192" stroke-width="1.51"/><path d="M570 890l-104 114 144-7z" fill="#74b26b" stroke="#74b26b" stroke-width="1.51"/><path d="M413-15l-7 74 189-10z" fill="#d8f0a4" stroke="#d8f0a4" stroke-width="1.51"/><path d="M451 642l81 67 17-135z" fill="#92d081" stroke="#92d081" stroke-width="1.51"/><path d="M454-259L413-15l155-172z" fill="#e1f3b2" stroke="#e1f3b2" stroke-width="1.51"/><path d="M442 863l24 141 104-114z" fill="#7cb86f" stroke="#7cb86f" stroke-width="1.51"/><path d="M465 1155l25 93 80-79z" fill="#6ba365" stroke="#6ba365" stroke-width="1.51"/><path d="M438 213l-12 165 146-136z" fill="#c1e697" stroke="#c1e697" stroke-width="1.51"/><path d="M417 543l34 99 98-68z" fill="#9cd587" stroke="#9cd587" stroke-width="1.51"/><path d="M451 642l-9 221 90-154z" fill="#8acb7c" stroke="#8acb7c" stroke-width="1.51"/><path d="M284-229L260-64l153 49z" fill="#ebf7b2" stroke="#ebf7b2" stroke-width="1.51"/><path d="M279 675l163 188 9-221z" fill="#92ce80" stroke="#92ce80" stroke-width="1.51"/><path d="M284-229L413-15l41-244z" fill="#e9f6b6" stroke="#e9f6b6" stroke-width="1.51"/><path d="M442 863L326 977l140 27z" fill="#80b870" stroke="#80b870" stroke-width="1.51"/><path d="M329 1161l136-6 1-151z" fill="#76ac6a" stroke="#76ac6a" stroke-width="1.51"/><path d="M465 1155l-136 6 161 87z" fill="#71a667" stroke="#71a667" stroke-width="1.51"/><path d="M329 1161l-38 114 199-27z" fill="#74a367" stroke="#74a367" stroke-width="1.51"/><path d="M335 515l82 28 9-165z" fill="#afde90" stroke="#afde90" stroke-width="1.51"/><path d="M312 202l114 176 12-165z" fill="#c8e99b" stroke="#c8e99b" stroke-width="1.51"/><path d="M406 59l-94 143 126 11z" fill="#d4eea0" stroke="#d4eea0" stroke-width="1.51"/><path d="M279 675l-50 117 213 71z" fill="#92cc7f" stroke="#92cc7f" stroke-width="1.51"/><path d="M326 977l3 184 137-157z" fill="#7db26d" stroke="#7db26d" stroke-width="1.51"/><path d="M286 418l49 97 91-137z" fill="#b7e193" stroke="#b7e193" stroke-width="1.51"/><path d="M417 543L279 675l172-33z" fill="#9fd687" stroke="#9fd687" stroke-width="1.51"/><path d="M275 129l37 73 94-143z" fill="#daf1a4" stroke="#daf1a4" stroke-width="1.51"/><path d="M335 515l-56 160 138-132z" fill="#a6d98c" stroke="#a6d98c" stroke-width="1.51"/><path d="M312 202l-26 216 140-40z" fill="#c4e799" stroke="#c4e799" stroke-width="1.51"/><path d="M229 792l97 185 116-114z" fill="#8ac177" stroke="#8ac177" stroke-width="1.51"/><path d="M23-243l58 28 203-14z" fill="#f7fcc7" stroke="#f7fcc7" stroke-width="1.51"/><path d="M260-64L406 59l7-74z" fill="#e3f4aa" stroke="#e3f4aa" stroke-width="1.51"/><path d="M260-64l15 193 131-70z" fill="#e2f4a9" stroke="#e2f4a9" stroke-width="1.51"/><path d="M260-64l-97 169 112 24z" fill="#e5f5ab" stroke="#e5f5ab" stroke-width="1.51"/><path d="M102 194l80 212 130-204z" fill="#d2eda2" stroke="#d2eda2" stroke-width="1.51"/><path d="M182 406l104 12 26-216z" fill="#c7e89b" stroke="#c7e89b" stroke-width="1.51"/><path d="M229 792l-59 98 156 87z" fill="#8ec27a" stroke="#8ec27a" stroke-width="1.51"/><path d="M326 977l-191 32 194 152z" fill="#83b471" stroke="#83b471" stroke-width="1.51"/><path d="M135 1009l4 133 190 19z" fill="#83b172" stroke="#83b172" stroke-width="1.51"/><path d="M286 418L122 522l213-7z" fill="#b6e195" stroke="#b6e195" stroke-width="1.51"/><path d="M122 522l157 153 56-160z" fill="#acdc90" stroke="#acdc90" stroke-width="1.51"/><path d="M139 1142l152 133 38-114z" fill="#7ca96d" stroke="#7ca96d" stroke-width="1.51"/><path d="M182 406l-60 116 164-104z" fill="#bde498" stroke="#bde498" stroke-width="1.51"/><path d="M170 890l-35 119 191-32z" fill="#8abc77" stroke="#8abc77" stroke-width="1.51"/><path d="M275 129l-173 65 210 8z" fill="#dbf1a5" stroke="#dbf1a5" stroke-width="1.51"/><path d="M163 105l-61 89 173-65z" fill="#e1f3a8" stroke="#e1f3a8" stroke-width="1.51"/><path d="M122 522L82 664l197 11z" fill="#abda8f" stroke="#abda8f" stroke-width="1.51"/><path d="M82-113l178 49 24-165z" fill="#f1fab9" stroke="#f1fab9" stroke-width="1.51"/><path d="M81-215l1 102 202-116z" fill="#f5fbc1" stroke="#f5fbc1" stroke-width="1.51"/><path d="M139 1142l-26 171 178-38z" fill="#7da56d" stroke="#7da56d" stroke-width="1.51"/><path d="M82 664l147 128 50-117z" fill="#9ed488" stroke="#9ed488" stroke-width="1.51"/><path d="M82-113l81 218 97-169z" fill="#eef9b2" stroke="#eef9b2" stroke-width="1.51"/><path d="M7 799l163 91 59-98z" fill="#97ca82" stroke="#97ca82" stroke-width="1.51"/><path d="M82 664L7 799l222-7z" fill="#9ed288" stroke="#9ed288" stroke-width="1.51"/><path d="M-12 207l-48 186 162-199z" fill="#dbf0aa" stroke="#dbf0aa" stroke-width="1.51"/><path d="M82-113L24 98l139 7z" fill="#eef9b2" stroke="#eef9b2" stroke-width="1.51"/><path d="M102 194L-60 393l242 13z" fill="#d2eca3" stroke="#d2eca3" stroke-width="1.51"/><path d="M15 523l107-1 60-116z" fill="#bde39a" stroke="#bde39a" stroke-width="1.51"/><path d="M-60 393l75 130 167-117z" fill="#c5e79f" stroke="#c5e79f" stroke-width="1.51"/><path d="M18 1134l95 179 26-171z" fill="#83ac72" stroke="#83ac72" stroke-width="1.51"/><path d="M-40 959l175 50 35-119z" fill="#91bf7b" stroke="#91bf7b" stroke-width="1.51"/><path d="M7 799l-47 160 210-69z" fill="#97c682" stroke="#97c682" stroke-width="1.51"/><path d="M135 1009L18 1134l121 8z" fill="#88b576" stroke="#88b576" stroke-width="1.51"/><path d="M24 98l78 96 61-89z" fill="#e6f6ac" stroke="#e6f6ac" stroke-width="1.51"/><path d="M1 700l6 99 75-135z" fill="#a5d58d" stroke="#a5d58d" stroke-width="1.51"/><path d="M-54-30L24 98l58-211z" fill="#f3fab8" stroke="#f3fab8" stroke-width="1.51"/><path d="M15 523l67 141 40-142z" fill="#b5df96" stroke="#b5df96" stroke-width="1.51"/><path d="M18 1134l-87 156 182 23z" fill="#83a874" stroke="#83a874" stroke-width="1.51"/><path d="M-40 959l58 175 117-125z" fill="#8eb97a" stroke="#8eb97a" stroke-width="1.51"/><path d="M24 98l-36 109 114-13z" fill="#e5f4ad" stroke="#e5f4ad" stroke-width="1.51"/><path d="M15 523L1 700l81-36z" fill="#afdb94" stroke="#afdb94" stroke-width="1.51"/><path d="M81-215l-58-28 59 130z" fill="#fafdc5" stroke="#fafdc5" stroke-width="1.51"/><path d="M23-243L-54-30l136-83z" fill="#f9fcc2" stroke="#f9fcc2" stroke-width="1.51"/><path d="M-138 198l78 195 48-186z" fill="#dcf0b0" stroke="#dcf0b0" stroke-width="1.51"/><path d="M-184 499l51 246L1 700z" fill="#afdb9c" stroke="#afdb9c" stroke-width="1.51"/><path d="M-184 499L1 700l14-177z" fill="#b7e09e" stroke="#b7e09e" stroke-width="1.51"/><path d="M-167 1234l98 56 87-156z" fill="#86ab7c" stroke="#86ab7c" stroke-width="1.51"/><path d="M-40 959l-146 142 204 33z" fill="#8eb881" stroke="#8eb881" stroke-width="1.51"/><path d="M-130-241l76 211 77-213z" fill="#fbfdcc" stroke="#fbfdcc" stroke-width="1.51"/><path d="M-54-30l-109 95L24 98z" fill="#f0f9bb" stroke="#f0f9bb" stroke-width="1.51"/><path d="M-138 198l126 9L24 98z" fill="#e5f5b3" stroke="#e5f5b3" stroke-width="1.51"/><path d="M-163 65l25 133L24 98z" fill="#ebf7b9" stroke="#ebf7b9" stroke-width="1.51"/><path d="M-185 1008l-1 93 146-142z" fill="#91bb87" stroke="#91bb87" stroke-width="1.51"/><path d="M-211 846l171 113L7 799z" fill="#9bc88b" stroke="#9bc88b" stroke-width="1.51"/><path d="M-133 745l-78 101L7 799z" fill="#a0d093" stroke="#a0d093" stroke-width="1.51"/><path d="M1 700l-134 45L7 799z" fill="#a3d491" stroke="#a3d491" stroke-width="1.51"/><path d="M-60 393l-124 106 199 24z" fill="#c3e6a6" stroke="#c3e6a6" stroke-width="1.51"/><path d="M-186 1101l19 133 185-100z" fill="#89b181" stroke="#89b181" stroke-width="1.51"/><path d="M-130-241l-63 170 139 41z" fill="#fbfdcb" stroke="#fbfdcb" stroke-width="1.51"/><path d="M-138 198l-62 171 140 24z" fill="#d6eeb2" stroke="#d6eeb2" stroke-width="1.51"/><path d="M-211 846l26 162 145-49z" fill="#96c28b" stroke="#96c28b" stroke-width="1.51"/><path d="M-200 369l16 130 124-106z" fill="#cbe9ae" stroke="#cbe9ae" stroke-width="1.51"/><path d="M-193-71l30 136 109-95z" fill="#f5fbc4" stroke="#f5fbc4" stroke-width="1.51"/><path d="M-184 499l-27 347 78-101z" fill="#abd89f" stroke="#abd89f" stroke-width="1.51"/><path d="M-163 65l-37 304 62-171z" fill="#e2f3ba" stroke="#e2f3ba" stroke-width="1.51"/><path d="M-193-71l-7 440 37-304z" fill="#ecf7c0" stroke="#ecf7c0" stroke-width="1.51"/><path d="M-200 369l-11 477 27-347z" fill="#b9e1a9" stroke="#b9e1a9" stroke-width="1.51"/><path d="M-211 846l25 255 1-93z" fill="#94bf8c" stroke="#94bf8c" stroke-width="1.51"/></svg>