<svg id="home" viewBox="0 0 612 612"><path d="M458.388 230.724c0-3.672-1.428-6.528-4.284-8.568L313.344 113.22c-4.08-3.264-8.568-3.264-13.464 0L164.016 222.156c-2.448 2.04-3.672 4.896-3.672 8.568v196.452c0 3.267 1.02 5.916 3.06 7.956s4.488 3.063 7.344 3.063h80.784c3.264 0 5.916-1.021 7.956-3.063 2.04-2.04 3.06-4.689 3.06-7.956V306.613h93.024v120.562c0 3.267 1.02 5.916 3.06 7.956s4.692 3.063 7.956 3.063h80.784c3.264 0 5.916-1.021 7.956-3.063s3.06-4.689 3.06-7.956V230.724zM306 0c42.024 0 81.702 8.058 119.034 24.174s69.768 37.944 97.308 65.484 49.368 59.976 65.484 97.308S612 263.976 612 306c0 28.152-3.672 55.284-11.016 81.396-7.347 26.109-17.646 50.487-30.906 73.134a305.087 305.087 0 0 1-47.736 61.812 304.924 304.924 0 0 1-61.812 47.736c-22.646 13.26-47.022 23.562-73.136 30.906C361.284 608.328 334.152 612 306 612s-55.284-3.672-81.396-11.016c-26.112-7.347-50.49-17.646-73.134-30.906s-43.248-29.172-61.812-47.736a305.032 305.032 0 0 1-47.736-61.812c-13.26-22.646-23.562-47.022-30.906-73.135C3.672 361.284 0 334.152 0 306s3.672-55.284 11.016-81.396 17.646-50.49 30.906-73.134 29.172-43.248 47.736-61.812 39.168-34.476 61.812-47.736 47.022-23.562 73.134-30.906S277.848 0 306 0z"/></svg>