<svg xmlns="http://www.w3.org/2000/svg" width="1920" height="1080"><path d="M-130,-241L23,-243L454,-259Z" fill="#f8fcc9" stroke="#f8fcc9" stroke-width="1.51"/><path d="M623,1300L113,1313L752,1308Z" fill="#689860" stroke="#689860" stroke-width="1.51"/><path d="M752,1308L113,1313L1047,1332Z" fill="#5d935c" stroke="#5d935c" stroke-width="1.51"/><path d="M454,-259L835,-250L1165,-263Z" fill="#c9e8b0" stroke="#c9e8b0" stroke-width="1.51"/><path d="M1165,-263L1493,-214L1758,-214Z" fill="#9ac68f" stroke="#9ac68f" stroke-width="1.51"/><path d="M1515,1307L1047,1332L1821,1344Z" fill="#176d3b" stroke="#176d3b" stroke-width="1.51"/><path d="M1165,-263L1758,-214L2036,-249Z" fill="#92bc8a" stroke="#92bc8a" stroke-width="1.51"/><path d="M1937,1311L1821,1344L2044,1311Z" fill="#005530" stroke="#005530" stroke-width="1.51"/><path d="M1964,378L2041,423L2081,219Z" fill="#5c955c" stroke="#5c955c" stroke-width="1.51"/><path d="M1915,829L1945,972L2087,789Z" fill="#1a763f" stroke="#1a763f" stroke-width="1.51"/><path d="M1977,113L2081,219L2091,36Z" fill="#739e66" stroke="#739e66" stroke-width="1.51"/><path d="M2036,-249L1926,-192L2111,-10Z" fill="#83a677" stroke="#83a677" stroke-width="1.51"/><path d="M1926,-192L1904,-77L2111,-10Z" fill="#84a873" stroke="#84a873" stroke-width="1.51"/><path d="M2091,36L2081,219L2111,-10Z" fill="#749c67" stroke="#749c67" stroke-width="1.51"/><path d="M2087,789L1945,972L2116,984Z" fill="#166e3b" stroke="#166e3b" stroke-width="1.51"/><path d="M2044,1146L2044,1311L2116,984Z" fill="#015c32" stroke="#015c32" stroke-width="1.51"/><path d="M2081,219L2041,423L2133,648Z" fill="#4f8d56" stroke="#4f8d56" stroke-width="1.51"/><path d="M2041,423L2043,533L2133,648Z" fill="#418952" stroke="#418952" stroke-width="1.51"/><path d="M1899,657L2087,789L2133,648Z" fill="#2b8048" stroke="#2b8048" stroke-width="1.51"/><path d="M2043,533L1899,657L2133,648Z" fill="#38864e" stroke="#38864e" stroke-width="1.51"/><path d="M2111,-10L2081,219L2133,648Z" fill="#60935c" stroke="#60935c" stroke-width="1.51"/><path d="M2087,789L2116,984L2133,648Z" fill="#1d7340" stroke="#1d7340" stroke-width="1.51"/><path d="M1758,-214L1926,-192L2036,-249Z" fill="#88ae82" stroke="#88ae82" stroke-width="1.51"/><path d="M2044,1146L1970,1189L2044,1311Z" fill="#005932" stroke="#005932" stroke-width="1.51"/><path d="M1977,113L1982,194L2081,219Z" fill="#6e9e64" stroke="#6e9e64" stroke-width="1.51"/><path d="M1945,972L2044,1146L2116,984Z" fill="#0c6636" stroke="#0c6636" stroke-width="1.51"/><path d="M1904,-77L2091,36L2111,-10Z" fill="#7da26d" stroke="#7da26d" stroke-width="1.51"/><path d="M1947,537L1899,657L2043,533Z" fill="#3e8d52" stroke="#3e8d52" stroke-width="1.51"/><path d="M1982,194L1964,378L2081,219Z" fill="#659a60" stroke="#659a60" stroke-width="1.51"/><path d="M1899,657L1915,829L2087,789Z" fill="#238146" stroke="#238146" stroke-width="1.51"/><path d="M1904,-77L1977,113L2091,36Z" fill="#7ba46c" stroke="#7ba46c" stroke-width="1.51"/><path d="M1964,378L1947,537L2041,423Z" fill="#4f9358" stroke="#4f9358" stroke-width="1.51"/><path d="M2041,423L1947,537L2043,533Z" fill="#478e55" stroke="#478e55" stroke-width="1.51"/><path d="M1945,972L1970,1189L2044,1146Z" fill="#056435" stroke="#056435" stroke-width="1.51"/><path d="M1970,1189L1937,1311L2044,1311Z" fill="#005730" stroke="#005730" stroke-width="1.51"/><path d="M1945,972L1826,1127L1970,1189Z" fill="#066937" stroke="#066937" stroke-width="1.51"/><path d="M1755,431L1947,537L1964,378Z" fill="#51995b" stroke="#51995b" stroke-width="1.51"/><path d="M1904,-77L1766,82L1977,113Z" fill="#7eab6e" stroke="#7eab6e" stroke-width="1.51"/><path d="M1977,113L1787,204L1982,194Z" fill="#72a467" stroke="#72a467" stroke-width="1.51"/><path d="M1787,204L1964,378L1982,194Z" fill="#68a163" stroke="#68a163" stroke-width="1.51"/><path d="M1766,82L1787,204L1977,113Z" fill="#78ab6b" stroke="#78ab6b" stroke-width="1.51"/><path d="M1787,204L1755,431L1964,378Z" fill="#61a261" stroke="#61a261" stroke-width="1.51"/><path d="M1826,1127L1937,1311L1970,1189Z" fill="#006035" stroke="#006035" stroke-width="1.51"/><path d="M1493,-214L1689,-193L1758,-214Z" fill="#91bc87" stroke="#91bc87" stroke-width="1.51"/><path d="M1826,1127L1821,1344L1937,1311Z" fill="#005f33" stroke="#005f33" stroke-width="1.51"/><path d="M1915,829L1808,857L1945,972Z" fill="#1a7a40" stroke="#1a7a40" stroke-width="1.51"/><path d="M1899,657L1729,735L1915,829Z" fill="#278a4a" stroke="#278a4a" stroke-width="1.51"/><path d="M1729,735L1808,857L1915,829Z" fill="#228547" stroke="#228547" stroke-width="1.51"/><path d="M1746,947L1826,1127L1945,972Z" fill="#10723b" stroke="#10723b" stroke-width="1.51"/><path d="M1808,857L1746,947L1945,972Z" fill="#18793f" stroke="#18793f" stroke-width="1.51"/><path d="M1729,586L1899,657L1947,537Z" fill="#3d9254" stroke="#3d9254" stroke-width="1.51"/><path d="M1755,431L1729,586L1947,537Z" fill="#4a9959" stroke="#4a9959" stroke-width="1.51"/><path d="M1784,-104L1904,-77L1926,-192Z" fill="#87b079" stroke="#87b079" stroke-width="1.51"/><path d="M1187,1285L1047,1332L1515,1307Z" fill="#237b45" stroke="#237b45" stroke-width="1.51"/><path d="M1784,-104L1766,82L1904,-77Z" fill="#85b174" stroke="#85b174" stroke-width="1.51"/><path d="M1758,-214L1784,-104L1926,-192Z" fill="#8ab27f" stroke="#8ab27f" stroke-width="1.51"/><path d="M1682,1256L1821,1344L1826,1127Z" fill="#056535" stroke="#056535" stroke-width="1.51"/><path d="M1729,586L1729,735L1899,657Z" fill="#379251" stroke="#379251" stroke-width="1.51"/><path d="M1676,229L1755,431L1787,204Z" fill="#6ba966" stroke="#6ba966" stroke-width="1.51"/><path d="M1682,1256L1515,1307L1821,1344Z" fill="#0c6435" stroke="#0c6435" stroke-width="1.51"/><path d="M1746,947L1677,1043L1826,1127Z" fill="#14753c" stroke="#14753c" stroke-width="1.51"/><path d="M1677,1043L1682,1256L1826,1127Z" fill="#0b6f3a" stroke="#0b6f3a" stroke-width="1.51"/><path d="M1606,-115L1766,82L1784,-104Z" fill="#8ab676" stroke="#8ab676" stroke-width="1.51"/><path d="M1597,844L1746,947L1808,857Z" fill="#218344" stroke="#218344" stroke-width="1.51"/><path d="M1729,735L1597,844L1808,857Z" fill="#278a49" stroke="#278a49" stroke-width="1.51"/><path d="M1165,-263L1366,-200L1493,-214Z" fill="#a0cf95" stroke="#a0cf95" stroke-width="1.51"/><path d="M1677,1043L1589,1123L1682,1256Z" fill="#11733b" stroke="#11733b" stroke-width="1.51"/><path d="M1642,442L1729,586L1755,431Z" fill="#52a05d" stroke="#52a05d" stroke-width="1.51"/><path d="M1676,229L1642,442L1755,431Z" fill="#63a863" stroke="#63a863" stroke-width="1.51"/><path d="M1624,140L1676,229L1766,82Z" fill="#7cb26e" stroke="#7cb26e" stroke-width="1.51"/><path d="M1606,-115L1624,140L1766,82Z" fill="#86b674" stroke="#86b674" stroke-width="1.51"/><path d="M1758,-214L1689,-193L1784,-104Z" fill="#8db781" stroke="#8db781" stroke-width="1.51"/><path d="M1766,82L1676,229L1787,204Z" fill="#78ae6b" stroke="#78ae6b" stroke-width="1.51"/><path d="M1689,-193L1606,-115L1784,-104Z" fill="#8eb97f" stroke="#8eb97f" stroke-width="1.51"/><path d="M1642,442L1649,583L1729,586Z" fill="#4c9f5b" stroke="#4c9f5b" stroke-width="1.51"/><path d="M1729,586L1649,583L1729,735Z" fill="#3d9854" stroke="#3d9854" stroke-width="1.51"/><path d="M1649,583L1625,725L1729,735Z" fill="#389752" stroke="#389752" stroke-width="1.51"/><path d="M1625,725L1597,844L1729,735Z" fill="#2d914c" stroke="#2d914c" stroke-width="1.51"/><path d="M1597,844L1677,1043L1746,947Z" fill="#1e7f41" stroke="#1e7f41" stroke-width="1.51"/><path d="M1606,-115L1516,-69L1624,140Z" fill="#8dbc78" stroke="#8dbc78" stroke-width="1.51"/><path d="M1522,229L1642,442L1676,229Z" fill="#6eaf68" stroke="#6eaf68" stroke-width="1.51"/><path d="M1597,844L1518,1007L1677,1043Z" fill="#208141" stroke="#208141" stroke-width="1.51"/><path d="M1493,-214L1606,-115L1689,-193Z" fill="#93be85" stroke="#93be85" stroke-width="1.51"/><path d="M1522,229L1467,431L1642,442Z" fill="#69af67" stroke="#69af67" stroke-width="1.51"/><path d="M1642,442L1510,529L1649,583Z" fill="#52a35d" stroke="#52a35d" stroke-width="1.51"/><path d="M1589,1123L1515,1307L1682,1256Z" fill="#116e3a" stroke="#116e3a" stroke-width="1.51"/><path d="M1516,-69L1458,90L1624,140Z" fill="#8abd76" stroke="#8abd76" stroke-width="1.51"/><path d="M1624,140L1522,229L1676,229Z" fill="#7ab46d" stroke="#7ab46d" stroke-width="1.51"/><path d="M1518,1007L1589,1123L1677,1043Z" fill="#1a7b3f" stroke="#1a7b3f" stroke-width="1.51"/><path d="M1510,529L1432,709L1625,725Z" fill="#42a057" stroke="#42a057" stroke-width="1.51"/><path d="M1510,529L1625,725L1649,583Z" fill="#459f58" stroke="#459f58" stroke-width="1.51"/><path d="M1467,431L1510,529L1642,442Z" fill="#5baa62" stroke="#5baa62" stroke-width="1.51"/><path d="M1379,1249L1187,1285L1515,1307Z" fill="#1e7741" stroke="#1e7741" stroke-width="1.51"/><path d="M1448,885L1518,1007L1597,844Z" fill="#288a47" stroke="#288a47" stroke-width="1.51"/><path d="M1432,709L1597,844L1625,725Z" fill="#32964f" stroke="#32964f" stroke-width="1.51"/><path d="M1458,90L1522,229L1624,140Z" fill="#82ba71" stroke="#82ba71" stroke-width="1.51"/><path d="M1450,1085L1515,1307L1589,1123Z" fill="#16773e" stroke="#16773e" stroke-width="1.51"/><path d="M1432,709L1448,885L1597,844Z" fill="#31954e" stroke="#31954e" stroke-width="1.51"/><path d="M1493,-214L1516,-69L1606,-115Z" fill="#94c183" stroke="#94c183" stroke-width="1.51"/><path d="M1450,1085L1379,1249L1515,1307Z" fill="#1a7740" stroke="#1a7740" stroke-width="1.51"/><path d="M1518,1007L1450,1085L1589,1123Z" fill="#1d7e41" stroke="#1d7e41" stroke-width="1.51"/><path d="M1383,680L1432,709L1510,529Z" fill="#48a65c" stroke="#48a65c" stroke-width="1.51"/><path d="M1284,-61L1458,90L1516,-69Z" fill="#94c77f" stroke="#94c77f" stroke-width="1.51"/><path d="M1493,-214L1366,-200L1516,-69Z" fill="#99c789" stroke="#99c789" stroke-width="1.51"/><path d="M1448,885L1373,962L1518,1007Z" fill="#298b48" stroke="#298b48" stroke-width="1.51"/><path d="M1458,90L1333,114L1522,229Z" fill="#87c176" stroke="#87c176" stroke-width="1.51"/><path d="M1333,114L1343,285L1522,229Z" fill="#82c075" stroke="#82c075" stroke-width="1.51"/><path d="M1378,376L1467,431L1522,229Z" fill="#70b66c" stroke="#70b66c" stroke-width="1.51"/><path d="M1343,285L1378,376L1522,229Z" fill="#78bb70" stroke="#78bb70" stroke-width="1.51"/><path d="M1373,962L1450,1085L1518,1007Z" fill="#258646" stroke="#258646" stroke-width="1.51"/><path d="M1366,-200L1284,-61L1516,-69Z" fill="#9bcb87" stroke="#9bcb87" stroke-width="1.51"/><path d="M1467,431L1289,508L1510,529Z" fill="#5db166" stroke="#5db166" stroke-width="1.51"/><path d="M1289,508L1383,680L1510,529Z" fill="#53ad63" stroke="#53ad63" stroke-width="1.51"/><path d="M1432,709L1297,789L1448,885Z" fill="#379e54" stroke="#379e54" stroke-width="1.51"/><path d="M1348,1096L1379,1249L1450,1085Z" fill="#1f8244" stroke="#1f8244" stroke-width="1.51"/><path d="M1373,962L1348,1096L1450,1085Z" fill="#258847" stroke="#258847" stroke-width="1.51"/><path d="M1284,-61L1333,114L1458,90Z" fill="#93c97e" stroke="#93c97e" stroke-width="1.51"/><path d="M1378,376L1289,508L1467,431Z" fill="#67b66b" stroke="#67b66b" stroke-width="1.51"/><path d="M1383,680L1297,789L1432,709Z" fill="#3fa559" stroke="#3fa559" stroke-width="1.51"/><path d="M1297,789L1373,962L1448,885Z" fill="#32974f" stroke="#32974f" stroke-width="1.51"/><path d="M1284,-61L1227,53L1333,114Z" fill="#98cf83" stroke="#98cf83" stroke-width="1.51"/><path d="M1297,789L1223,811L1373,962Z" fill="#389e54" stroke="#389e54" stroke-width="1.51"/><path d="M1176,1022L1348,1096L1373,962Z" fill="#2c904c" stroke="#2c904c" stroke-width="1.51"/><path d="M1182,398L1289,508L1378,376Z" fill="#6dbd6f" stroke="#6dbd6f" stroke-width="1.51"/><path d="M1348,1096L1231,1187L1379,1249Z" fill="#228347" stroke="#228347" stroke-width="1.51"/><path d="M1186,688L1297,789L1383,680Z" fill="#44ab5d" stroke="#44ab5d" stroke-width="1.51"/><path d="M1289,508L1186,688L1383,680Z" fill="#51b164" stroke="#51b164" stroke-width="1.51"/><path d="M1231,1187L1187,1285L1379,1249Z" fill="#238146" stroke="#238146" stroke-width="1.51"/><path d="M1343,285L1182,398L1378,376Z" fill="#76c072" stroke="#76c072" stroke-width="1.51"/><path d="M1205,-99L1284,-61L1366,-200Z" fill="#a1d38d" stroke="#a1d38d" stroke-width="1.51"/><path d="M1223,811L1176,1022L1373,962Z" fill="#349951" stroke="#349951" stroke-width="1.51"/><path d="M1333,114L1155,289L1343,285Z" fill="#85c879" stroke="#85c879" stroke-width="1.51"/><path d="M1165,-263L1205,-99L1366,-200Z" fill="#a5d596" stroke="#a5d596" stroke-width="1.51"/><path d="M1157,566L1186,688L1289,508Z" fill="#5cb76a" stroke="#5cb76a" stroke-width="1.51"/><path d="M1227,53L1155,289L1333,114Z" fill="#91ce7f" stroke="#91ce7f" stroke-width="1.51"/><path d="M1155,289L1182,398L1343,285Z" fill="#7fc677" stroke="#7fc677" stroke-width="1.51"/><path d="M1176,1022L1231,1187L1348,1096Z" fill="#2a8d4c" stroke="#2a8d4c" stroke-width="1.51"/><path d="M1090,122L1155,289L1227,53Z" fill="#97d182" stroke="#97d182" stroke-width="1.51"/><path d="M1186,688L1223,811L1297,789Z" fill="#43aa5d" stroke="#43aa5d" stroke-width="1.51"/><path d="M291,1275L113,1313L623,1300Z" fill="#739d66" stroke="#739d66" stroke-width="1.51"/><path d="M1081,959L1176,1022L1223,811Z" fill="#3e9e56" stroke="#3e9e56" stroke-width="1.51"/><path d="M1205,-99L1227,53L1284,-61Z" fill="#a0d488" stroke="#a0d488" stroke-width="1.51"/><path d="M1182,398L1157,566L1289,508Z" fill="#69be70" stroke="#69be70" stroke-width="1.51"/><path d="M921,1291L752,1308L1047,1332Z" fill="#468a53" stroke="#468a53" stroke-width="1.51"/><path d="M835,-250L1044,-198L1165,-263Z" fill="#b8e0a7" stroke="#b8e0a7" stroke-width="1.51"/><path d="M1165,-263L1044,-198L1205,-99Z" fill="#adda9b" stroke="#adda9b" stroke-width="1.51"/><path d="M1044,-198L1081,-87L1205,-99Z" fill="#aedb97" stroke="#aedb97" stroke-width="1.51"/><path d="M1071,863L1081,959L1223,811Z" fill="#45a45a" stroke="#45a45a" stroke-width="1.51"/><path d="M1186,688L1059,742L1223,811Z" fill="#4cb062" stroke="#4cb062" stroke-width="1.51"/><path d="M1205,-99L1081,-87L1227,53Z" fill="#a6d78c" stroke="#a6d78c" stroke-width="1.51"/><path d="M1081,-87L1090,122L1227,53Z" fill="#a3d68a" stroke="#a3d68a" stroke-width="1.51"/><path d="M1055,1126L1187,1285L1231,1187Z" fill="#30894c" stroke="#30894c" stroke-width="1.51"/><path d="M1176,1022L1055,1126L1231,1187Z" fill="#349150" stroke="#349150" stroke-width="1.51"/><path d="M1059,742L1071,863L1223,811Z" fill="#4cac5f" stroke="#4cac5f" stroke-width="1.51"/><path d="M1085,373L1157,566L1182,398Z" fill="#76c475" stroke="#76c475" stroke-width="1.51"/><path d="M1085,373L1017,555L1157,566Z" fill="#73c375" stroke="#73c375" stroke-width="1.51"/><path d="M1155,289L1085,373L1182,398Z" fill="#82c97a" stroke="#82c97a" stroke-width="1.51"/><path d="M1157,566L1059,742L1186,688Z" fill="#59b669" stroke="#59b669" stroke-width="1.51"/><path d="M1055,1126L1047,1332L1187,1285Z" fill="#36884e" stroke="#36884e" stroke-width="1.51"/><path d="M1017,555L1059,742L1157,566Z" fill="#64bb6e" stroke="#64bb6e" stroke-width="1.51"/><path d="M1090,122L984,266L1155,289Z" fill="#96d283" stroke="#96d283" stroke-width="1.51"/><path d="M1081,959L1055,1126L1176,1022Z" fill="#3e9854" stroke="#3e9854" stroke-width="1.51"/><path d="M23,-243L284,-229L454,-259Z" fill="#f1f9c4" stroke="#f1f9c4" stroke-width="1.51"/><path d="M984,266L1085,373L1155,289Z" fill="#8cce7f" stroke="#8cce7f" stroke-width="1.51"/><path d="M921,1291L1047,1332L1055,1126Z" fill="#3e8b51" stroke="#3e8b51" stroke-width="1.51"/><path d="M920,1136L921,1291L1055,1126Z" fill="#439455" stroke="#439455" stroke-width="1.51"/><path d="M1017,555L936,695L1059,742Z" fill="#65bc6e" stroke="#65bc6e" stroke-width="1.51"/><path d="M886,-63L874,56L1081,-87Z" fill="#b6e097" stroke="#b6e097" stroke-width="1.51"/><path d="M912,1040L1055,1126L1081,959Z" fill="#469c58" stroke="#469c58" stroke-width="1.51"/><path d="M940,511L1017,555L1085,373Z" fill="#7cc779" stroke="#7cc779" stroke-width="1.51"/><path d="M1081,-87L874,56L1090,122Z" fill="#addc90" stroke="#addc90" stroke-width="1.51"/><path d="M874,56L984,266L1090,122Z" fill="#a6d98c" stroke="#a6d98c" stroke-width="1.51"/><path d="M1071,863L875,853L1081,959Z" fill="#50a85f" stroke="#50a85f" stroke-width="1.51"/><path d="M984,266L868,354L1085,373Z" fill="#92d182" stroke="#92d182" stroke-width="1.51"/><path d="M868,354L940,511L1085,373Z" fill="#88cd7f" stroke="#88cd7f" stroke-width="1.51"/><path d="M1059,742L875,853L1071,863Z" fill="#55af64" stroke="#55af64" stroke-width="1.51"/><path d="M1044,-198L886,-63L1081,-87Z" fill="#b7e09a" stroke="#b7e09a" stroke-width="1.51"/><path d="M875,853L912,1040L1081,959Z" fill="#51a55d" stroke="#51a55d" stroke-width="1.51"/><path d="M874,56L876,238L984,266Z" fill="#a7db8c" stroke="#a7db8c" stroke-width="1.51"/><path d="M936,695L875,853L1059,742Z" fill="#5eb76a" stroke="#5eb76a" stroke-width="1.51"/><path d="M912,1040L920,1136L1055,1126Z" fill="#489a59" stroke="#489a59" stroke-width="1.51"/><path d="M835,-250L886,-63L1044,-198Z" fill="#bee3a4" stroke="#bee3a4" stroke-width="1.51"/><path d="M940,511L936,695L1017,555Z" fill="#72c376" stroke="#72c376" stroke-width="1.51"/><path d="M876,238L868,354L984,266Z" fill="#9cd688" stroke="#9cd688" stroke-width="1.51"/><path d="M874,56L789,212L876,238Z" fill="#afde90" stroke="#afde90" stroke-width="1.51"/><path d="M875,853L759,1002L912,1040Z" fill="#5aa861" stroke="#5aa861" stroke-width="1.51"/><path d="M920,1136L752,1308L921,1291Z" fill="#4b9157" stroke="#4b9157" stroke-width="1.51"/><path d="M786,745L875,853L936,695Z" fill="#66ba6d" stroke="#66ba6d" stroke-width="1.51"/><path d="M868,354L696,415L940,511Z" fill="#93d283" stroke="#93d283" stroke-width="1.51"/><path d="M696,415L681,540L940,511Z" fill="#90d082" stroke="#90d082" stroke-width="1.51"/><path d="M786,745L936,695L940,511Z" fill="#71c274" stroke="#71c274" stroke-width="1.51"/><path d="M681,540L786,745L940,511Z" fill="#7fc87a" stroke="#7fc87a" stroke-width="1.51"/><path d="M835,-250L741,-179L886,-63Z" fill="#c7e7a7" stroke="#c7e7a7" stroke-width="1.51"/><path d="M726,1118L752,1308L920,1136Z" fill="#54995b" stroke="#54995b" stroke-width="1.51"/><path d="M759,1002L726,1118L912,1040Z" fill="#5aa35f" stroke="#5aa35f" stroke-width="1.51"/><path d="M912,1040L726,1118L920,1136Z" fill="#539e5c" stroke="#539e5c" stroke-width="1.51"/><path d="M454,-259L568,-187L835,-250Z" fill="#d8efb5" stroke="#d8efb5" stroke-width="1.51"/><path d="M702,91L789,212L874,56Z" fill="#b9e294" stroke="#b9e294" stroke-width="1.51"/><path d="M786,745L773,825L875,853Z" fill="#68b86c" stroke="#68b86c" stroke-width="1.51"/><path d="M773,825L759,1002L875,853Z" fill="#63b066" stroke="#63b066" stroke-width="1.51"/><path d="M789,212L868,354L876,238Z" fill="#a4d98b" stroke="#a4d98b" stroke-width="1.51"/><path d="M690,-28L874,56L886,-63Z" fill="#c0e59a" stroke="#c0e59a" stroke-width="1.51"/><path d="M741,-179L690,-28L886,-63Z" fill="#c9e8a0" stroke="#c9e8a0" stroke-width="1.51"/><path d="M568,-187L741,-179L835,-250Z" fill="#d0ecaf" stroke="#d0ecaf" stroke-width="1.51"/><path d="M690,-28L702,91L874,56Z" fill="#c2e699" stroke="#c2e699" stroke-width="1.51"/><path d="M789,212L696,415L868,354Z" fill="#a3d98a" stroke="#a3d98a" stroke-width="1.51"/><path d="M726,1118L623,1300L752,1308Z" fill="#5b985c" stroke="#5b985c" stroke-width="1.51"/><path d="M610,997L759,1002L773,825Z" fill="#69af66" stroke="#69af66" stroke-width="1.51"/><path d="M570,890L610,997L773,825Z" fill="#70b56b" stroke="#70b56b" stroke-width="1.51"/><path d="M681,540L532,709L786,745Z" fill="#84ca7b" stroke="#84ca7b" stroke-width="1.51"/><path d="M601,375L696,415L789,212Z" fill="#aadc8c" stroke="#aadc8c" stroke-width="1.51"/><path d="M572,242L601,375L789,212Z" fill="#b4e091" stroke="#b4e091" stroke-width="1.51"/><path d="M702,91L572,242L789,212Z" fill="#bbe394" stroke="#bbe394" stroke-width="1.51"/><path d="M532,709L773,825L786,745Z" fill="#76c173" stroke="#76c173" stroke-width="1.51"/><path d="M490,1248L291,1275L623,1300Z" fill="#6b9c62" stroke="#6b9c62" stroke-width="1.51"/><path d="M570,1169L623,1300L726,1118Z" fill="#619e60" stroke="#619e60" stroke-width="1.51"/><path d="M532,709L570,890L773,825Z" fill="#79bf72" stroke="#79bf72" stroke-width="1.51"/><path d="M549,574L532,709L681,540Z" fill="#91d081" stroke="#91d081" stroke-width="1.51"/><path d="M610,997L726,1118L759,1002Z" fill="#64a863" stroke="#64a863" stroke-width="1.51"/><path d="M568,-187L690,-28L741,-179Z" fill="#d3eda9" stroke="#d3eda9" stroke-width="1.51"/><path d="M568,-187L629,-12L690,-28Z" fill="#d5eea4" stroke="#d5eea4" stroke-width="1.51"/><path d="M690,-28L629,-12L702,91Z" fill="#cae99e" stroke="#cae99e" stroke-width="1.51"/><path d="M610,997L570,1169L726,1118Z" fill="#67a764" stroke="#67a764" stroke-width="1.51"/><path d="M601,375L681,540L696,415Z" fill="#9fd788" stroke="#9fd788" stroke-width="1.51"/><path d="M629,-12L595,49L702,91Z" fill="#cbea9d" stroke="#cbea9d" stroke-width="1.51"/><path d="M595,49L572,242L702,91Z" fill="#c6e89a" stroke="#c6e89a" stroke-width="1.51"/><path d="M601,375L549,574L681,540Z" fill="#9cd687" stroke="#9cd687" stroke-width="1.51"/><path d="M438,213L572,242L595,49Z" fill="#c8e99b" stroke="#c8e99b" stroke-width="1.51"/><path d="M426,378L549,574L601,375Z" fill="#aadc8d" stroke="#aadc8d" stroke-width="1.51"/><path d="M466,1004L570,1169L610,997Z" fill="#6fac68" stroke="#6fac68" stroke-width="1.51"/><path d="M570,1169L490,1248L623,1300Z" fill="#669c61" stroke="#669c61" stroke-width="1.51"/><path d="M413,-15L595,49L629,-12Z" fill="#d4eea3" stroke="#d4eea3" stroke-width="1.51"/><path d="M568,-187L413,-15L629,-12Z" fill="#dbf1a7" stroke="#dbf1a7" stroke-width="1.51"/><path d="M466,1004L465,1155L570,1169Z" fill="#70aa68" stroke="#70aa68" stroke-width="1.51"/><path d="M426,378L417,543L549,574Z" fill="#a7da8c" stroke="#a7da8c" stroke-width="1.51"/><path d="M532,709L442,863L570,890Z" fill="#80c175" stroke="#80c175" stroke-width="1.51"/><path d="M406,59L438,213L595,49Z" fill="#d2eda0" stroke="#d2eda0" stroke-width="1.51"/><path d="M572,242L426,378L601,375Z" fill="#b7e192" stroke="#b7e192" stroke-width="1.51"/><path d="M570,890L466,1004L610,997Z" fill="#74b26b" stroke="#74b26b" stroke-width="1.51"/><path d="M413,-15L406,59L595,49Z" fill="#d8f0a4" stroke="#d8f0a4" stroke-width="1.51"/><path d="M451,642L532,709L549,574Z" fill="#92d081" stroke="#92d081" stroke-width="1.51"/><path d="M454,-259L413,-15L568,-187Z" fill="#e1f3b2" stroke="#e1f3b2" stroke-width="1.51"/><path d="M442,863L466,1004L570,890Z" fill="#7cb86f" stroke="#7cb86f" stroke-width="1.51"/><path d="M465,1155L490,1248L570,1169Z" fill="#6ba365" stroke="#6ba365" stroke-width="1.51"/><path d="M438,213L426,378L572,242Z" fill="#c1e697" stroke="#c1e697" stroke-width="1.51"/><path d="M417,543L451,642L549,574Z" fill="#9cd587" stroke="#9cd587" stroke-width="1.51"/><path d="M451,642L442,863L532,709Z" fill="#8acb7c" stroke="#8acb7c" stroke-width="1.51"/><path d="M284,-229L260,-64L413,-15Z" fill="#ebf7b2" stroke="#ebf7b2" stroke-width="1.51"/><path d="M279,675L442,863L451,642Z" fill="#92ce80" stroke="#92ce80" stroke-width="1.51"/><path d="M284,-229L413,-15L454,-259Z" fill="#e9f6b6" stroke="#e9f6b6" stroke-width="1.51"/><path d="M442,863L326,977L466,1004Z" fill="#80b870" stroke="#80b870" stroke-width="1.51"/><path d="M329,1161L465,1155L466,1004Z" fill="#76ac6a" stroke="#76ac6a" stroke-width="1.51"/><path d="M465,1155L329,1161L490,1248Z" fill="#71a667" stroke="#71a667" stroke-width="1.51"/><path d="M329,1161L291,1275L490,1248Z" fill="#74a367" stroke="#74a367" stroke-width="1.51"/><path d="M335,515L417,543L426,378Z" fill="#afde90" stroke="#afde90" stroke-width="1.51"/><path d="M312,202L426,378L438,213Z" fill="#c8e99b" stroke="#c8e99b" stroke-width="1.51"/><path d="M406,59L312,202L438,213Z" fill="#d4eea0" stroke="#d4eea0" stroke-width="1.51"/><path d="M279,675L229,792L442,863Z" fill="#92cc7f" stroke="#92cc7f" stroke-width="1.51"/><path d="M326,977L329,1161L466,1004Z" fill="#7db26d" stroke="#7db26d" stroke-width="1.51"/><path d="M286,418L335,515L426,378Z" fill="#b7e193" stroke="#b7e193" stroke-width="1.51"/><path d="M417,543L279,675L451,642Z" fill="#9fd687" stroke="#9fd687" stroke-width="1.51"/><path d="M275,129L312,202L406,59Z" fill="#daf1a4" stroke="#daf1a4" stroke-width="1.51"/><path d="M335,515L279,675L417,543Z" fill="#a6d98c" stroke="#a6d98c" stroke-width="1.51"/><path d="M312,202L286,418L426,378Z" fill="#c4e799" stroke="#c4e799" stroke-width="1.51"/><path d="M229,792L326,977L442,863Z" fill="#8ac177" stroke="#8ac177" stroke-width="1.51"/><path d="M23,-243L81,-215L284,-229Z" fill="#f7fcc7" stroke="#f7fcc7" stroke-width="1.51"/><path d="M260,-64L406,59L413,-15Z" fill="#e3f4aa" stroke="#e3f4aa" stroke-width="1.51"/><path d="M260,-64L275,129L406,59Z" fill="#e2f4a9" stroke="#e2f4a9" stroke-width="1.51"/><path d="M260,-64L163,105L275,129Z" fill="#e5f5ab" stroke="#e5f5ab" stroke-width="1.51"/><path d="M102,194L182,406L312,202Z" fill="#d2eda2" stroke="#d2eda2" stroke-width="1.51"/><path d="M182,406L286,418L312,202Z" fill="#c7e89b" stroke="#c7e89b" stroke-width="1.51"/><path d="M229,792L170,890L326,977Z" fill="#8ec27a" stroke="#8ec27a" stroke-width="1.51"/><path d="M326,977L135,1009L329,1161Z" fill="#83b471" stroke="#83b471" stroke-width="1.51"/><path d="M135,1009L139,1142L329,1161Z" fill="#83b172" stroke="#83b172" stroke-width="1.51"/><path d="M286,418L122,522L335,515Z" fill="#b6e195" stroke="#b6e195" stroke-width="1.51"/><path d="M122,522L279,675L335,515Z" fill="#acdc90" stroke="#acdc90" stroke-width="1.51"/><path d="M139,1142L291,1275L329,1161Z" fill="#7ca96d" stroke="#7ca96d" stroke-width="1.51"/><path d="M182,406L122,522L286,418Z" fill="#bde498" stroke="#bde498" stroke-width="1.51"/><path d="M170,890L135,1009L326,977Z" fill="#8abc77" stroke="#8abc77" stroke-width="1.51"/><path d="M275,129L102,194L312,202Z" fill="#dbf1a5" stroke="#dbf1a5" stroke-width="1.51"/><path d="M163,105L102,194L275,129Z" fill="#e1f3a8" stroke="#e1f3a8" stroke-width="1.51"/><path d="M122,522L82,664L279,675Z" fill="#abda8f" stroke="#abda8f" stroke-width="1.51"/><path d="M82,-113L260,-64L284,-229Z" fill="#f1fab9" stroke="#f1fab9" stroke-width="1.51"/><path d="M81,-215L82,-113L284,-229Z" fill="#f5fbc1" stroke="#f5fbc1" stroke-width="1.51"/><path d="M139,1142L113,1313L291,1275Z" fill="#7da56d" stroke="#7da56d" stroke-width="1.51"/><path d="M82,664L229,792L279,675Z" fill="#9ed488" stroke="#9ed488" stroke-width="1.51"/><path d="M82,-113L163,105L260,-64Z" fill="#eef9b2" stroke="#eef9b2" stroke-width="1.51"/><path d="M7,799L170,890L229,792Z" fill="#97ca82" stroke="#97ca82" stroke-width="1.51"/><path d="M82,664L7,799L229,792Z" fill="#9ed288" stroke="#9ed288" stroke-width="1.51"/><path d="M-12,207L-60,393L102,194Z" fill="#dbf0aa" stroke="#dbf0aa" stroke-width="1.51"/><path d="M82,-113L24,98L163,105Z" fill="#eef9b2" stroke="#eef9b2" stroke-width="1.51"/><path d="M102,194L-60,393L182,406Z" fill="#d2eca3" stroke="#d2eca3" stroke-width="1.51"/><path d="M15,523L122,522L182,406Z" fill="#bde39a" stroke="#bde39a" stroke-width="1.51"/><path d="M-60,393L15,523L182,406Z" fill="#c5e79f" stroke="#c5e79f" stroke-width="1.51"/><path d="M18,1134L113,1313L139,1142Z" fill="#83ac72" stroke="#83ac72" stroke-width="1.51"/><path d="M-40,959L135,1009L170,890Z" fill="#91bf7b" stroke="#91bf7b" stroke-width="1.51"/><path d="M7,799L-40,959L170,890Z" fill="#97c682" stroke="#97c682" stroke-width="1.51"/><path d="M135,1009L18,1134L139,1142Z" fill="#88b576" stroke="#88b576" stroke-width="1.51"/><path d="M24,98L102,194L163,105Z" fill="#e6f6ac" stroke="#e6f6ac" stroke-width="1.51"/><path d="M1,700L7,799L82,664Z" fill="#a5d58d" stroke="#a5d58d" stroke-width="1.51"/><path d="M-54,-30L24,98L82,-113Z" fill="#f3fab8" stroke="#f3fab8" stroke-width="1.51"/><path d="M15,523L82,664L122,522Z" fill="#b5df96" stroke="#b5df96" stroke-width="1.51"/><path d="M18,1134L-69,1290L113,1313Z" fill="#83a874" stroke="#83a874" stroke-width="1.51"/><path d="M-40,959L18,1134L135,1009Z" fill="#8eb97a" stroke="#8eb97a" stroke-width="1.51"/><path d="M24,98L-12,207L102,194Z" fill="#e5f4ad" stroke="#e5f4ad" stroke-width="1.51"/><path d="M15,523L1,700L82,664Z" fill="#afdb94" stroke="#afdb94" stroke-width="1.51"/><path d="M81,-215L23,-243L82,-113Z" fill="#fafdc5" stroke="#fafdc5" stroke-width="1.51"/><path d="M23,-243L-54,-30L82,-113Z" fill="#f9fcc2" stroke="#f9fcc2" stroke-width="1.51"/><path d="M-138,198L-60,393L-12,207Z" fill="#dcf0b0" stroke="#dcf0b0" stroke-width="1.51"/><path d="M-184,499L-133,745L1,700Z" fill="#afdb9c" stroke="#afdb9c" stroke-width="1.51"/><path d="M-184,499L1,700L15,523Z" fill="#b7e09e" stroke="#b7e09e" stroke-width="1.51"/><path d="M-167,1234L-69,1290L18,1134Z" fill="#86ab7c" stroke="#86ab7c" stroke-width="1.51"/><path d="M-40,959L-186,1101L18,1134Z" fill="#8eb881" stroke="#8eb881" stroke-width="1.51"/><path d="M-130,-241L-54,-30L23,-243Z" fill="#fbfdcc" stroke="#fbfdcc" stroke-width="1.51"/><path d="M-54,-30L-163,65L24,98Z" fill="#f0f9bb" stroke="#f0f9bb" stroke-width="1.51"/><path d="M-138,198L-12,207L24,98Z" fill="#e5f5b3" stroke="#e5f5b3" stroke-width="1.51"/><path d="M-163,65L-138,198L24,98Z" fill="#ebf7b9" stroke="#ebf7b9" stroke-width="1.51"/><path d="M-185,1008L-186,1101L-40,959Z" fill="#91bb87" stroke="#91bb87" stroke-width="1.51"/><path d="M-211,846L-40,959L7,799Z" fill="#9bc88b" stroke="#9bc88b" stroke-width="1.51"/><path d="M-133,745L-211,846L7,799Z" fill="#a0d093" stroke="#a0d093" stroke-width="1.51"/><path d="M1,700L-133,745L7,799Z" fill="#a3d491" stroke="#a3d491" stroke-width="1.51"/><path d="M-60,393L-184,499L15,523Z" fill="#c3e6a6" stroke="#c3e6a6" stroke-width="1.51"/><path d="M-186,1101L-167,1234L18,1134Z" fill="#89b181" stroke="#89b181" stroke-width="1.51"/><path d="M-130,-241L-193,-71L-54,-30Z" fill="#fbfdcb" stroke="#fbfdcb" stroke-width="1.51"/><path d="M-138,198L-200,369L-60,393Z" fill="#d6eeb2" stroke="#d6eeb2" stroke-width="1.51"/><path d="M-211,846L-185,1008L-40,959Z" fill="#96c28b" stroke="#96c28b" stroke-width="1.51"/><path d="M-200,369L-184,499L-60,393Z" fill="#cbe9ae" stroke="#cbe9ae" stroke-width="1.51"/><path d="M-193,-71L-163,65L-54,-30Z" fill="#f5fbc4" stroke="#f5fbc4" stroke-width="1.51"/><path d="M-184,499L-211,846L-133,745Z" fill="#abd89f" stroke="#abd89f" stroke-width="1.51"/><path d="M-163,65L-200,369L-138,198Z" fill="#e2f3ba" stroke="#e2f3ba" stroke-width="1.51"/><path d="M-193,-71L-200,369L-163,65Z" fill="#ecf7c0" stroke="#ecf7c0" stroke-width="1.51"/><path d="M-200,369L-211,846L-184,499Z" fill="#b9e1a9" stroke="#b9e1a9" stroke-width="1.51"/><path d="M-211,846L-186,1101L-185,1008Z" fill="#94bf8c" stroke="#94bf8c" stroke-width="1.51"/></svg>